# xmcd
#
# Track frame offsets: 
#        150
#        12661
#        24341
#        34786
#        48250
#        63702
#        80179
#        90315
#        101203
#        112758
#        122056
#        133482
#        151273
#        161812
#        172273
#        184000
#        195084
#        207937
#        219948
#        232666
#        246871
#        254688
#        263257
#        272486
#
# Disc length: 3813 seconds
#
# Revision: 0
# Processed by: cddbd v1.5.2PL0 Copyright (c) Steve Scherf et al.
# Submitted via: ExactAudioCopy v1.0b1
#
DISCID=480ee318
DTITLE=Johnny Copeland - It's Me: Classic Texas Soul (1965-72 [CD1]
DYEAR=2013
DGENRE=Soul
TTITLE0=It's Me (1965)
TTITLE1=Invitation, The (1965)
TTITLE2=Blowing In The Wind (1966)
TTITLE3=Dedicated To The Greatest (1966)
TTITLE4=I'm Going To Make My Home Where I Hang My Hat (1966)
TTITLE5=You're Gonna Reap Just What You Sow (1966)
TTITLE6=Wake Up, Little Susie (1966)
TTITLE7=Mother Nature (1966 Released 1987)
TTITLE8=I Waited Too Long (1966 Released 1987)
TTITLE9=Hip Hop, The (1966 Released 2013)
TTITLE10=Four Dried Beans (1966 Released 2013)
TTITLE11=Johnny Ace Medley #1: Anymore, Pledging My Love, Cross My Hea
TTITLE11=rt (1966 Released 1987)
TTITLE12=Stealing (1966 Released 1987)
TTITLE13=Something's Up Your Sleeve (1966)
TTITLE14=That's All Right Little Mama (1966)
TTITLE15=Coming To See About You (1966)
TTITLE16=All These Things (1966)
TTITLE17=Something You Got (1966)
TTITLE18=It's My Own Tears That's Being Wasted (1966)
TTITLE19=Slow Walk You Down (1967)
TTITLE20=Danger Zone (1967)
TTITLE21=If You're Looking For A Fool (1970)
TTITLE22=Sufferin' City (Version 2) (Solo) 1971)
TTITLE23=I Wish I Was Single (1971)
EXTD=
EXTT0=
EXTT1=
EXTT2=
EXTT3=
EXTT4=
EXTT5=
EXTT6=
EXTT7=
EXTT8=
EXTT9=
EXTT10=
EXTT11=
EXTT12=
EXTT13=
EXTT14=
EXTT15=
EXTT16=
EXTT17=
EXTT18=
EXTT19=
EXTT20=
EXTT21=
EXTT22=
EXTT23=
PLAYORDER=
